<?xml version="1.0" encoding="UTF-8"?><svg id="Layer_1" xmlns="http://www.w3.org/2000/svg" viewBox="0 0 792 206.5"><defs><style>.cls-1{fill:#231f20;}.cls-2{fill:#41b64b;}</style></defs><path class="cls-1" d="m112.6,149.8c.5-1.2.9-2.4,1.4-3.6.5-1.2,1-2.3,1.6-3.3l63-111.3c.6-1,1.2-1.6,1.8-1.8.6-.2,1.4-.3,2.5-.3h8v160.2h-10.2V53c0-2,.1-4,.3-6.2l-63.1,112c-1.1,2-2.6,2.9-4.5,2.9h-1.8c-1.9,0-3.4-1-4.5-2.9L42.3,46.7c.2,2.2.3,4.3.3,6.3v136.6h-10.1V29.4h7.9c1.1,0,1.9.1,2.5.3.6.2,1.3.8,1.9,1.8l64.7,111.4c1.1,2.1,2.1,4.4,2.9,6.8Z"/><path class="cls-2" d="m213.5,189.6h9.2c1.1,0,1.9-.3,2.6-.8.7-.6,1.2-1.3,1.6-2.2l54.6-132.9c1.4-3.5,2.6-7.2,3.5-11.1.8,4.1,1.9,7.8,3.3,11.1l54.5,132.9c.4.8.9,1.5,1.6,2.2.7.6,1.6.9,2.7.9h9.1L290,29.4h-10.3l-66.1,160.2Z"/><path class="cls-1" d="m389.7,117.1v72.5h-11.6V29.4h40.9c18.5,0,32.3,3.6,41.4,10.7,9.1,7.1,13.7,17.6,13.7,31.4s-1.1,11.7-3.2,16.8c-2.1,5.1-5.2,9.5-9.1,13.3-4,3.8-8.7,6.9-14.3,9.4-5.6,2.5-11.9,4.1-18.9,4.8,1.8,1.1,3.4,2.6,4.9,4.5l55.2,69.3h-10.1c-1.2,0-2.2-.2-3.1-.7-.9-.5-1.7-1.2-2.5-2.3l-51.3-65c-1.3-1.7-2.7-2.8-4.1-3.5-1.5-.7-3.8-1-6.9-1h-21Zm0-8.6h27.9c7.1,0,13.5-.8,19.1-2.5,5.6-1.7,10.4-4.1,14.3-7.3,3.9-3.2,6.9-7,8.9-11.4,2-4.5,3.1-9.5,3.1-15.1,0-11.4-3.7-19.9-11.2-25.4-7.5-5.5-18.3-8.3-32.6-8.3h-29.3v70Z"/><path class="cls-2" d="m489.7,29.4h9.2c1.1,0,1.9.3,2.6.8.7.6,1.2,1.3,1.6,2.2l54.6,132.9c1.4,3.5,2.6,7.2,3.5,11.1.8-4.1,1.9-7.8,3.3-11.1l54.5-132.9c.4-.8.9-1.5,1.6-2.2.7-.6,1.6-.9,2.7-.9h9.1l-66.1,160.2h-10.3L489.7,29.4Z"/><path class="cls-1" d="m764.4,189.6h-8.9c-1.1,0-1.9-.3-2.6-.8s-1.2-1.3-1.6-2.2l-18.9-46.5h-78.7l-18.8,46.5c-.3.8-.8,1.5-1.6,2.2-.8.6-1.7.9-2.7.9h-8.8l65.6-160.2h11.6l65.6,160.2Zm-107.2-58.2h71.8l-32.7-81c-.5-1.3-1.1-2.7-1.6-4.4-.5-1.6-1.1-3.3-1.6-5.2-.5,1.8-1.1,3.5-1.6,5.2-.5,1.6-1.1,3.1-1.6,4.5l-32.7,80.9Z"/></svg>